<?xml version="1.0" encoding="UTF-8" standalone="no"?>
<!-- Created with Inkscape (http://www.inkscape.org/) -->

<svg
   xmlns:dc="http://purl.org/dc/elements/1.1/"
   xmlns:cc="http://creativecommons.org/ns#"
   xmlns:rdf="http://www.w3.org/1999/02/22-rdf-syntax-ns#"
   xmlns:svg="http://www.w3.org/2000/svg"
   xmlns="http://www.w3.org/2000/svg"
   xmlns:sodipodi="http://sodipodi.sourceforge.net/DTD/sodipodi-0.dtd"
   xmlns:inkscape="http://www.inkscape.org/namespaces/inkscape"
   width="210mm"
   height="297mm"
   viewBox="0 0 210 297"
   version="1.1"
   id="svg8"
   inkscape:version="0.92.3 (2405546, 2018-03-11)"
   sodipodi:docname="icon-1.svg">
  <defs
     id="defs2" />
  <sodipodi:namedview
     id="base"
     pagecolor="#ffffff"
     bordercolor="#666666"
     borderopacity="1.0"
     inkscape:pageopacity="0.0"
     inkscape:pageshadow="2"
     inkscape:zoom="0.98994949"
     inkscape:cx="-154.89188"
     inkscape:cy="746.53706"
     inkscape:document-units="mm"
     inkscape:current-layer="layer1"
     showgrid="false"
     inkscape:window-width="1920"
     inkscape:window-height="1001"
     inkscape:window-x="-9"
     inkscape:window-y="-9"
     inkscape:window-maximized="1" />
  <metadata
     id="metadata5">
    <rdf:RDF>
      <cc:Work
         rdf:about="">
        <dc:format>image/svg+xml</dc:format>
        <dc:type
           rdf:resource="http://purl.org/dc/dcmitype/StillImage" />
        <dc:title></dc:title>
      </cc:Work>
    </rdf:RDF>
  </metadata>
  <g
     inkscape:label="Layer 1"
     inkscape:groupmode="layer"
     id="layer1">
    <path
       style="fill:#000000;stroke-width:0.26458335"
       d="m -79.389978,178.83445 c -1.149128,-0.36337 -5.321494,-2.26961 -8.875144,-4.0548 -14.492158,-7.28021 -27.882418,-18.64549 -37.109308,-31.49735 -4.35098,-6.06035 -9.47777,-15.4326 -11.53038,-21.07863 -2.22489,-6.11988 -3.9236,-14.37113 -4.84787,-23.547915 -0.39117,-3.88379 -0.462,-7.104068 -0.43934,-19.976045 0.0148,-8.440209 0.14136,-21.739686 0.28113,-29.554396 l 0.25413,-14.208561 0.69816,-1.004981 c 0.384,-0.55274 0.92483,-1.14537 1.20186,-1.316958 0.27703,-0.171587 14.00265,-4.570659 30.50137,-9.775715 22.760093,-7.180407 30.316866,-9.463739 31.3206,-9.463739 1.003742,0 8.562364,2.283916 31.328891,9.466348 16.503288,5.206492 30.282675,9.647649 30.620862,9.869239 0.338191,0.221589 0.884876,0.837054 1.214861,1.3677 0.594035,0.955265 0.601599,1.085234 0.76448,13.135645 0.09048,6.693959 0.25365,18.243022 0.362606,25.664584 0.32793,22.337174 -0.59018,33.250884 -3.728205,44.317714 -2.902892,10.23759 -8.529423,20.64137 -16.598543,30.69167 -3.051794,3.80109 -9.988722,10.80617 -13.730534,13.86542 -8.124386,6.64239 -16.837007,11.95909 -26.435191,16.13154 -2.768926,1.20369 -3.870429,1.40687 -5.254435,0.96923 z m 4.256712,-10.13025 c 17.149083,-7.74322 32.195054,-21.04453 41.741351,-36.90121 7.241702,-12.02867 9.949032,-22.05287 10.923321,-40.444788 0.283339,-5.348679 0.148444,-22.734509 -0.382678,-49.320769 l -0.05016,-2.511025 -1.322917,-0.456256 c -0.727606,-0.250939 -13.109874,-4.1516 -27.516151,-8.668137 l -26.19323,-8.211884 -26.19427,8.211801 c -14.40685,4.516491 -26.78959,8.417271 -27.51719,8.668403 l -1.32292,0.456602 -0.0502,3.569094 c -0.0276,1.963002 -0.18532,11.486751 -0.35045,21.163887 -0.48975,28.70198 0.22454,39.535452 3.32843,50.481262 2.94529,10.38651 8.81673,20.60329 17.59316,30.61354 5.725,6.52983 13.046193,12.66109 21.223489,17.77397 2.769264,1.73149 12.541245,6.69869 13.179894,6.69947 0.231071,2.6e-4 1.540814,-0.5055 2.910541,-1.12396 z m -12.591087,-37.68111 c -7.921089,-0.26167 -19.276927,-1.20709 -26.855217,-2.23579 -2.25557,-0.30619 -4.12091,-0.5733 -4.1452,-0.5936 -0.0243,-0.0203 8.19103,-0.0369 18.25625,-0.0369 13.1992,0 19.148568,-0.0952 21.343125,-0.34147 4.096949,-0.45978 5.027084,-0.61677 5.027084,-0.84848 0,-0.22896 -3.405976,-0.96071 -10.451042,-2.24534 -5.828581,-1.0628 -8.975588,-1.82786 -9.834979,-2.39096 -0.940509,-0.61624 -1.491226,-1.61857 -1.302488,-2.37056 0.412911,-1.64517 2.905345,-2.23175 10.355274,-2.43707 10.254253,-0.2826 21.527506,1.13939 34.043338,4.29418 3.085145,0.77766 8.212397,2.30989 9.204481,2.75069 l 0.661459,0.29389 -0.661459,-0.12577 c -7.659767,-1.45637 -18.701539,-2.99414 -26.722917,-3.72164 -4.544516,-0.41217 -16.404168,-0.55115 -16.404168,-0.19223 0,0.11323 1.815703,0.54547 4.034896,0.96053 8.608939,1.61018 11.733814,2.6406 12.499775,4.12181 1.052375,2.03507 -0.329155,3.44681 -4.231545,4.32408 -1.819288,0.40898 -9.563622,1.01871 -11.641667,0.91657 -0.582084,-0.0286 -2.010834,-0.0835 -3.175,-0.12194 z m -32.015297,-4.08441 c 0.91127,-1.09321 5.82878,-6.44082 12.94794,-14.08041 l 6.861823,-7.36342 3.08484,-5.734655 c 5.19244,-9.652625 10.56847,-18.328064 14.959953,-24.141257 4.445198,-5.884299 10.241947,-10.690537 23.132617,-19.179863 8.252397,-5.43473 23.376219,-14.399467 23.717182,-14.058504 0.191826,0.191826 -0.524232,6.612298 -1.392603,12.486638 -2.291,15.498149 -5.538899,25.095471 -9.204883,27.199816 -0.385128,0.22107 -3.247478,0.356844 -9.46888,0.449143 l -8.916895,0.132292 3.87749,2.116667 c 2.132621,1.164167 4.582075,2.569882 5.443233,3.123811 l 1.565744,1.007144 -0.604396,0.643351 c -0.936353,0.996704 -4.624832,3.373855 -7.331866,4.725244 -6.592206,3.290918 -15.81012,6.243743 -27.689417,8.869893 -2.60567,0.57603 -4.808326,1.15393 -4.894792,1.28421 -0.08647,0.13028 -3.987397,4.28098 -8.66874,9.22377 l -8.51153,8.98689 -4.42537,2.3668 c -5.18081,2.77083 -5.16697,2.76484 -4.48145,1.94244 z m 35.139195,-28.424365 c 9.07663,-2.260395 15.979172,-4.580208 21.217769,-7.130895 1.600729,-0.779399 3.136136,-1.586423 3.412014,-1.793388 0.55608,-0.417179 0.955929,-0.13943 -4.680543,-3.251272 -2.802191,-1.547064 -3.496426,-2.443938 -3.292462,-4.2535 0.08365,-0.742124 0.369515,-1.444961 0.760035,-1.868622 1.248023,-1.353947 1.65056,-1.404636 11.154672,-1.404636 8.814607,0 8.826619,-7.94e-4 9.372021,-0.595313 2.189795,-2.387126 4.866058,-11.718862 6.544678,-22.820313 0.374065,-2.473855 0.748824,-4.944401 0.832795,-5.490105 0.194839,-1.266169 -0.0026,-1.261067 -2.261897,0.05844 -1.590664,0.929 -4.414094,3.827148 -24.387832,25.033241 -12.423895,13.190435 -22.628586,24.088123 -22.677092,24.217083 -0.124169,0.3301 -0.155358,0.33556 4.005842,-0.70073 z m 24.000776,-32.800964 c 4.004509,-3.782566 8.317696,-7.822801 9.584857,-8.9783 1.267164,-1.155499 2.253335,-2.151504 2.191494,-2.213348 -0.300781,-0.300778 -12.562836,7.738245 -18.263525,11.9736 -5.750584,4.272423 -9.005499,7.343331 -12.073186,11.390657 -2.442218,3.222122 -8.782477,13.06244 -10.143253,15.742709 -0.284517,0.560406 3.851903,-3.410056 10.47627,-10.055943 6.020531,-6.040093 14.222834,-14.076812 18.227343,-17.859375 z"
       id="path4529"
       inkscape:connector-curvature="0" />
  </g>
</svg>
