<?xml version="1.0" encoding="UTF-8" standalone="no"?>
<!-- Created with Inkscape (http://www.inkscape.org/) -->

<svg
   xmlns:dc="http://purl.org/dc/elements/1.1/"
   xmlns:cc="http://creativecommons.org/ns#"
   xmlns:rdf="http://www.w3.org/1999/02/22-rdf-syntax-ns#"
   xmlns:svg="http://www.w3.org/2000/svg"
   xmlns="http://www.w3.org/2000/svg"
   xmlns:sodipodi="http://sodipodi.sourceforge.net/DTD/sodipodi-0.dtd"
   xmlns:inkscape="http://www.inkscape.org/namespaces/inkscape"
   width="210mm"
   height="297mm"
   viewBox="0 0 210 297"
   version="1.1"
   id="svg8"
   inkscape:version="0.92.3 (2405546, 2018-03-11)"
   sodipodi:docname="icon-2.svg"
   inkscape:export-filename="D:\Projects\writesecurely\static\assets\images\logo-2.png"
   inkscape:export-xdpi="35.83559"
   inkscape:export-ydpi="35.83559">
  <defs
     id="defs2" />
  <sodipodi:namedview
     id="base"
     pagecolor="#ffffff"
     bordercolor="#666666"
     borderopacity="1.0"
     inkscape:pageopacity="0.0"
     inkscape:pageshadow="2"
     inkscape:zoom="0.98994949"
     inkscape:cx="-154.89188"
     inkscape:cy="746.53706"
     inkscape:document-units="mm"
     inkscape:current-layer="layer1"
     showgrid="false"
     inkscape:window-width="1920"
     inkscape:window-height="1001"
     inkscape:window-x="-9"
     inkscape:window-y="-9"
     inkscape:window-maximized="1" />
  <metadata
     id="metadata5">
    <rdf:RDF>
      <cc:Work
         rdf:about="">
        <dc:format>image/svg+xml</dc:format>
        <dc:type
           rdf:resource="http://purl.org/dc/dcmitype/StillImage" />
        <dc:title />
      </cc:Work>
    </rdf:RDF>
  </metadata>
  <g
     inkscape:label="Layer 1"
     inkscape:groupmode="layer"
     id="layer1">
    <path
       style="fill:#000000;stroke-width:0.26458335"
       d="m -87.724353,131.02309 c -7.921089,-0.26167 -19.276927,-1.20709 -26.855217,-2.23579 -2.25557,-0.30619 -4.12091,-0.5733 -4.1452,-0.5936 -0.0243,-0.0203 8.19103,-0.0369 18.25625,-0.0369 13.1992,0 19.148568,-0.0952 21.343125,-0.34147 4.096949,-0.45978 5.027084,-0.61677 5.027084,-0.84848 0,-0.22896 -3.405976,-0.96071 -10.451042,-2.24534 -5.828581,-1.0628 -8.975588,-1.82786 -9.834979,-2.39096 -0.940509,-0.61624 -1.491226,-1.61857 -1.302488,-2.37056 0.412911,-1.64517 2.905345,-2.23175 10.355274,-2.43707 10.254253,-0.2826 21.527506,1.13939 34.043338,4.29418 3.085145,0.77766 8.212397,2.30989 9.204481,2.75069 l 0.661459,0.29389 -0.661459,-0.12577 c -7.659767,-1.45637 -18.701539,-2.99414 -26.722917,-3.72164 -4.544516,-0.41217 -16.404168,-0.55115 -16.404168,-0.19223 0,0.11323 1.815703,0.54547 4.034896,0.96053 8.608939,1.61018 11.733814,2.6406 12.499775,4.12181 1.052375,2.03507 -0.329155,3.44681 -4.231545,4.32408 -1.819288,0.40898 -9.563622,1.01871 -11.641667,0.91657 -0.582084,-0.0286 -2.010834,-0.0835 -3.175,-0.12194 z"
       id="path877" />
    <path
       style="fill:#000000;stroke-width:0.26458335"
       d="m -119.73965,126.93868 c 0.91127,-1.09321 5.82878,-6.44082 12.94794,-14.08041 l 6.861823,-7.36342 3.08484,-5.734655 c 5.19244,-9.652625 10.56847,-18.328064 14.959953,-24.141257 4.445198,-5.884299 10.241947,-10.690537 23.132617,-19.179863 8.252397,-5.43473 23.376219,-14.399467 23.717182,-14.058504 0.191826,0.191826 -0.524232,6.612298 -1.392603,12.486638 -2.291,15.498149 -5.538899,25.095471 -9.204883,27.199816 -0.385128,0.22107 -3.247478,0.356844 -9.46888,0.449143 l -8.916895,0.132292 3.87749,2.116667 c 2.132621,1.164167 4.582075,2.569882 5.443233,3.123811 l 1.565744,1.007144 -0.604396,0.643351 c -0.936353,0.996704 -4.624832,3.373855 -7.331866,4.725244 -6.592206,3.290918 -15.81012,6.243743 -27.689417,8.869893 -2.60567,0.57603 -4.808326,1.15393 -4.894792,1.28421 -0.08647,0.13028 -3.987397,4.28098 -8.66874,9.22377 l -8.51153,8.98689 -4.42537,2.3668 c -5.18081,2.77083 -5.16697,2.76484 -4.48145,1.94244 z"
       id="path875" />
    <path
       style="fill:#000000;stroke-width:0.26458335"
       d="m -84.600455,98.514315 c 9.07663,-2.260395 15.979172,-4.580208 21.217769,-7.130895 1.600729,-0.779399 3.136136,-1.586423 3.412014,-1.793388 0.55608,-0.417179 0.955929,-0.13943 -4.680543,-3.251272 -2.802191,-1.547064 -3.496426,-2.443938 -3.292462,-4.2535 0.08365,-0.742124 0.369515,-1.444961 0.760035,-1.868622 1.248023,-1.353947 1.65056,-1.404636 11.154672,-1.404636 8.814607,0 8.826619,-7.94e-4 9.372021,-0.595313 2.189795,-2.387126 4.866058,-11.718862 6.544678,-22.820313 0.374065,-2.473855 0.748824,-4.944401 0.832795,-5.490105 0.194839,-1.266169 -0.0026,-1.261067 -2.261897,0.05844 -1.590664,0.929 -4.414094,3.827148 -24.387832,25.033241 -12.423895,13.190435 -22.628586,24.088123 -22.677092,24.217083 -0.124169,0.3301 -0.155358,0.33556 4.005842,-0.70073 z"
       id="path873" />
    <path
       style="fill:#000000;stroke-width:0.26458335"
       d="m -60.599679,65.713351 c 4.004509,-3.782566 8.317696,-7.822801 9.584857,-8.9783 1.267164,-1.155499 2.253335,-2.151504 2.191494,-2.213348 -0.300781,-0.300778 -12.562836,7.738245 -18.263525,11.9736 -5.750584,4.272423 -9.005499,7.343331 -12.073186,11.390657 -2.442218,3.222122 -8.782477,13.06244 -10.143253,15.742709 -0.284517,0.560406 3.851903,-3.410056 10.47627,-10.055943 6.020531,-6.040093 14.222834,-14.076812 18.227343,-17.859375 z"
       id="path4529" />
  </g>
</svg>
